<svg width="47" height="40" viewBox="0 0 47 40" fill="none" xmlns="http://www.w3.org/2000/svg">
<rect x="1.5" y="4.40912" width="44" height="34.0909" stroke="white" stroke-width="3"/>
<rect x="16.1562" y="14.5455" width="5.14062" height="2.18182" fill="white"/>
<rect x="24.9688" y="14.5455" width="5.14062" height="2.18182" fill="white"/>
<rect x="7.34375" y="6.54547" width="6.54545" height="2.20312" transform="rotate(-90 7.34375 6.54547)" fill="white"/>
<rect x="22.0312" y="6.54547" width="6.54545" height="2.20312" transform="rotate(-90 22.0312 6.54547)" fill="white"/>
<rect x="36.7188" y="6.54547" width="6.54545" height="2.20312" transform="rotate(-90 36.7188 6.54547)" fill="white"/>
<rect x="33.7812" y="14.5455" width="5.14062" height="2.18182" fill="white"/>
<rect x="7.34375" y="21.8182" width="5.14062" height="2.18182" fill="white"/>
<rect x="16.1562" y="21.8182" width="5.14062" height="2.18182" fill="white"/>
<rect x="24.9688" y="21.8182" width="5.14062" height="2.18182" fill="white"/>
<rect x="33.7812" y="21.8182" width="5.14062" height="2.18182" fill="white"/>
<rect x="7.34375" y="29.0909" width="5.14062" height="2.18182" fill="white"/>
<rect x="16.1562" y="29.0909" width="5.14062" height="2.18182" fill="white"/>
<rect x="24.9688" y="29.0909" width="5.14062" height="2.18182" fill="white"/>
</svg>
